<svg width="18" height="18" viewBox="0 0 18 18" fill="none" xmlns="http://www.w3.org/2000/svg">
<path d="M12.4346 3.20717L14.3761 5.14776L12.4346 3.20717ZM13.6831 1.49759L8.43333 6.74734C8.16208 7.01822 7.97708 7.36333 7.90166 7.73918L7.41675 10.1665L9.84408 9.68068C10.2199 9.60551 10.5646 9.42126 10.8359 9.14993L16.0857 3.90017C16.2434 3.74242 16.3686 3.55514 16.4539 3.34902C16.5393 3.1429 16.5833 2.92198 16.5833 2.69888C16.5833 2.47578 16.5393 2.25487 16.4539 2.04875C16.3686 1.84263 16.2434 1.65535 16.0857 1.49759C15.9279 1.33984 15.7406 1.2147 15.5345 1.12932C15.3284 1.04394 15.1075 1 14.8844 1C14.6613 1 14.4404 1.04394 14.2342 1.12932C14.0281 1.2147 13.8408 1.33984 13.6831 1.49759V1.49759Z" stroke="#3B3B3B" stroke-width="2" stroke-linecap="round" stroke-linejoin="round"/>
<path d="M14.75 12.0007V14.7507C14.75 15.2369 14.5568 15.7032 14.213 16.047C13.8692 16.3908 13.4029 16.584 12.9167 16.584H2.83333C2.3471 16.584 1.88079 16.3908 1.53697 16.047C1.19315 15.7032 1 15.2369 1 14.7507V4.66732C1 4.18109 1.19315 3.71477 1.53697 3.37096C1.88079 3.02714 2.3471 2.83398 2.83333 2.83398H5.58333" stroke="#3B3B3B" stroke-width="2" stroke-linecap="round" stroke-linejoin="round"/>
</svg>
