<svg width="27" height="27" viewBox="0 0 27 27" fill="none" xmlns="http://www.w3.org/2000/svg">
<path d="M13.5 1.6875C6.97676 1.6875 1.6875 6.97676 1.6875 13.5C1.6875 20.0232 6.97676 25.3125 13.5 25.3125C20.0232 25.3125 25.3125 20.0232 25.3125 13.5C25.3125 6.97676 20.0232 1.6875 13.5 1.6875ZM13.5 23.3086C8.08418 23.3086 3.69141 18.9158 3.69141 13.5C3.69141 8.08418 8.08418 3.69141 13.5 3.69141C18.9158 3.69141 23.3086 8.08418 23.3086 13.5C23.3086 18.9158 18.9158 23.3086 13.5 23.3086Z" fill="white"/>
<path d="M12.2344 18.1406C12.2344 18.4763 12.3677 18.7982 12.6051 19.0356C12.8424 19.2729 13.1643 19.4062 13.5 19.4062C13.8357 19.4062 14.1576 19.2729 14.3949 19.0356C14.6323 18.7982 14.7656 18.4763 14.7656 18.1406C14.7656 17.805 14.6323 17.483 14.3949 17.2457C14.1576 17.0083 13.8357 16.875 13.5 16.875C13.1643 16.875 12.8424 17.0083 12.6051 17.2457C12.3677 17.483 12.2344 17.805 12.2344 18.1406ZM12.8672 15.1875H14.1328C14.2488 15.1875 14.3438 15.0926 14.3438 14.9766V7.80469C14.3438 7.68867 14.2488 7.59375 14.1328 7.59375H12.8672C12.7512 7.59375 12.6562 7.68867 12.6562 7.80469V14.9766C12.6562 15.0926 12.7512 15.1875 12.8672 15.1875Z" fill="white"/>
</svg>
