<svg width="28" height="28" viewBox="0 0 28 28" fill="none" xmlns="http://www.w3.org/2000/svg">
<path d="M13.984 25.8525C14.4519 25.8417 14.9008 25.6658 15.2515 25.3559C15.6021 25.0461 15.8319 24.6221 15.9001 24.1592H11.9937C12.0638 24.6347 12.3043 25.0686 12.6705 25.3801C13.0366 25.6915 13.5034 25.8594 13.984 25.8525Z" fill="black"/>
<path d="M25.013 21.2851L24.7605 21.0623C24.0442 20.424 23.4171 19.6921 22.8964 18.8862C22.3277 17.7741 21.9868 16.5596 21.8938 15.314V11.6452C21.8908 11.1995 21.851 10.7549 21.775 10.3158C20.517 10.0572 19.387 9.37187 18.5763 8.37576C17.7656 7.37966 17.324 6.13401 17.3264 4.84971V4.38183C16.5509 4.00023 15.7178 3.7493 14.8607 3.63915V2.70338C14.8607 2.44043 14.7562 2.18825 14.5703 2.00231C14.3843 1.81637 14.1322 1.71191 13.8692 1.71191C13.6063 1.71191 13.3541 1.81637 13.1681 2.00231C12.9822 2.18825 12.8777 2.44043 12.8777 2.70338V3.67629C10.9585 3.94703 9.20193 4.90299 7.93244 6.36769C6.66295 7.83238 5.96621 9.7069 5.97087 11.6452V15.314C5.87786 16.5596 5.53698 17.7741 4.96826 18.8862C4.45647 19.6901 3.83954 20.4219 3.13386 21.0623L2.88135 21.2851V23.3794H25.013V21.2851Z" fill="black"/>
<path d="M22.8965 8.56297C24.9473 8.56297 26.6098 6.90044 26.6098 4.8496C26.6098 2.79876 24.9473 1.13623 22.8965 1.13623C20.8456 1.13623 19.1831 2.79876 19.1831 4.8496C19.1831 6.90044 20.8456 8.56297 22.8965 8.56297Z" fill="black"/>
</svg>
