<svg width="24" height="23" viewBox="0 0 24 23" fill="none" xmlns="http://www.w3.org/2000/svg">
<path d="M20.4 2.5335H18V1.4335C18 1.14176 17.8736 0.861969 17.6485 0.655679C17.4235 0.449389 17.1183 0.333496 16.8 0.333496C16.4817 0.333496 16.1765 0.449389 15.9515 0.655679C15.7264 0.861969 15.6 1.14176 15.6 1.4335V2.5335H8.4V1.4335C8.4 1.14176 8.27357 0.861969 8.04853 0.655679C7.82348 0.449389 7.51826 0.333496 7.2 0.333496C6.88174 0.333496 6.57652 0.449389 6.35147 0.655679C6.12643 0.861969 6 1.14176 6 1.4335V2.5335H3.6C2.64522 2.5335 1.72955 2.88117 1.05442 3.50004C0.379285 4.11891 0 4.95828 0 5.8335V19.0335C0 19.9087 0.379285 20.7481 1.05442 21.3669C1.72955 21.9858 2.64522 22.3335 3.6 22.3335H20.4C21.3548 22.3335 22.2705 21.9858 22.9456 21.3669C23.6207 20.7481 24 19.9087 24 19.0335V5.8335C24 4.95828 23.6207 4.11891 22.9456 3.50004C22.2705 2.88117 21.3548 2.5335 20.4 2.5335V2.5335ZM21.6 19.0335C21.6 19.3252 21.4736 19.605 21.2485 19.8113C21.0235 20.0176 20.7183 20.1335 20.4 20.1335H3.6C3.28174 20.1335 2.97652 20.0176 2.75147 19.8113C2.52643 19.605 2.4 19.3252 2.4 19.0335V11.3335H21.6V19.0335ZM21.6 9.1335H2.4V5.8335C2.4 5.54176 2.52643 5.26197 2.75147 5.05568C2.97652 4.84939 3.28174 4.7335 3.6 4.7335H6V5.8335C6 6.12523 6.12643 6.40502 6.35147 6.61131C6.57652 6.8176 6.88174 6.9335 7.2 6.9335C7.51826 6.9335 7.82348 6.8176 8.04853 6.61131C8.27357 6.40502 8.4 6.12523 8.4 5.8335V4.7335H15.6V5.8335C15.6 6.12523 15.7264 6.40502 15.9515 6.61131C16.1765 6.8176 16.4817 6.9335 16.8 6.9335C17.1183 6.9335 17.4235 6.8176 17.6485 6.61131C17.8736 6.40502 18 6.12523 18 5.8335V4.7335H20.4C20.7183 4.7335 21.0235 4.84939 21.2485 5.05568C21.4736 5.26197 21.6 5.54176 21.6 5.8335V9.1335Z" fill="white"/>
</svg>
