<svg width="24" height="25" viewBox="0 0 24 25" fill="none" xmlns="http://www.w3.org/2000/svg">
<path d="M11.1933 2.16742C11.3127 2.15976 11.4293 2.12843 11.5364 2.07526C11.6435 2.02209 11.7389 1.94814 11.8172 1.85772C11.8954 1.7673 11.9549 1.66222 11.9921 1.54859C12.0294 1.43496 12.0436 1.31506 12.034 1.19587C12.0245 1.07669 11.9913 0.960593 11.9364 0.854357C11.8815 0.748122 11.8061 0.653867 11.7144 0.577084C11.6227 0.5003 11.5167 0.442523 11.4025 0.407117C11.2883 0.371712 11.1681 0.359385 11.0491 0.370856C4.86599 0.86356 0 6.03814 0 12.3496C0 18.9866 5.38035 24.3667 12.0178 24.3667C18.3259 24.3667 23.4983 19.507 23.9958 13.3277C24.0073 13.2087 23.995 13.0886 23.9596 12.9744C23.9242 12.8602 23.8664 12.7542 23.7896 12.6625C23.7128 12.5709 23.6186 12.4954 23.5123 12.4405C23.4061 12.3856 23.29 12.3525 23.1708 12.3429C23.0516 12.3333 22.9317 12.3476 22.8181 12.3848C22.7044 12.422 22.5993 12.4815 22.5089 12.5597C22.4185 12.638 22.3445 12.7334 22.2914 12.8405C22.2382 12.9476 22.2069 13.0642 22.1992 13.1835C22.0398 15.1266 21.3277 16.9834 20.147 18.5348C18.9663 20.0861 17.3662 21.2672 15.5358 21.9385C13.7054 22.6098 11.7211 22.7433 9.81722 22.3233C7.91337 21.9032 6.16951 20.9471 4.79158 19.5679C3.41365 18.1887 2.45921 16.444 2.04099 14.5398C1.62276 12.6356 1.75822 10.6516 2.43137 8.82189C3.10451 6.99223 4.28723 5.39341 5.83983 4.21426C7.39242 3.0351 9.25006 2.32486 11.1933 2.16742V2.16742Z" fill="white"/>
<path d="M18.8644 3.54535C18.9443 3.45805 19.0408 3.38736 19.1481 3.33733C19.2554 3.2873 19.3715 3.25891 19.4898 3.25378C19.6081 3.24864 19.7263 3.26687 19.8375 3.30741C19.9488 3.34796 20.051 3.41003 20.1382 3.49007C20.3954 3.72561 20.643 3.97316 20.8785 4.23153C21.0302 4.40913 21.1069 4.63866 21.0927 4.87175C21.0784 5.10484 20.9743 5.32329 20.8021 5.4811C20.63 5.63891 20.4033 5.72374 20.1698 5.71773C19.9364 5.71171 19.7144 5.61532 19.5506 5.44887C19.3495 5.22953 19.139 5.01904 18.9196 4.81797C18.8323 4.73798 18.7616 4.64157 18.7116 4.53425C18.6616 4.42693 18.6332 4.31081 18.628 4.19251C18.6229 4.07422 18.6411 3.95607 18.6817 3.84482C18.7222 3.73357 18.7843 3.6314 18.8644 3.54415V3.54535Z" fill="white"/>
<path d="M11.1164 5.13916C11.3342 5.13917 11.5447 5.21804 11.7088 5.3612C11.873 5.50435 11.9797 5.7021 12.0093 5.91787L12.0178 6.04045V12.3495H15.9235C16.1519 12.3495 16.3717 12.4363 16.5386 12.5922C16.7054 12.7481 16.8069 12.9615 16.8225 13.1893C16.838 13.4171 16.7665 13.6424 16.6224 13.8195C16.4783 13.9966 16.2723 14.1125 16.0461 14.1436L15.9235 14.152H11.1164C10.8984 14.152 10.6878 14.0729 10.5237 13.9295C10.3595 13.7861 10.2529 13.5881 10.2235 13.3721L10.2151 13.2507V6.04045C10.2151 5.80141 10.31 5.57216 10.4791 5.40314C10.6481 5.23412 10.8774 5.13916 11.1164 5.13916V5.13916Z" fill="white"/>
<path d="M14.1581 1.4021C14.19 1.28805 14.2441 1.18141 14.3172 1.08827C14.3904 0.99513 14.4811 0.91732 14.5844 0.859286C14.6876 0.801252 14.8013 0.764132 14.9189 0.750049C15.0365 0.735965 15.1557 0.745193 15.2697 0.777205C15.7081 0.900643 16.139 1.0491 16.5604 1.22184C16.6734 1.26413 16.7767 1.32865 16.8642 1.41159C16.9518 1.49453 17.0218 1.5942 17.0702 1.70469C17.1185 1.81518 17.1442 1.93425 17.1456 2.05484C17.1471 2.17543 17.1244 2.2951 17.0788 2.40674C17.0332 2.51839 16.9656 2.61975 16.8801 2.70481C16.7946 2.78987 16.6929 2.85691 16.581 2.90196C16.4692 2.94701 16.3494 2.96914 16.2288 2.96706C16.1082 2.96497 15.9893 2.93871 15.879 2.88982C15.5233 2.74441 15.1579 2.61823 14.783 2.51368C14.6689 2.48177 14.5623 2.4277 14.4691 2.35456C14.376 2.28141 14.2982 2.19063 14.2402 2.08739C14.1821 1.98416 14.145 1.8705 14.1309 1.75291C14.1168 1.63533 14.1261 1.51612 14.1581 1.4021V1.4021Z" fill="white"/>
<path d="M23.145 7.80111C23.1002 7.69151 23.0343 7.59181 22.9509 7.50771C22.8675 7.4236 22.7684 7.35673 22.6592 7.31093C22.5501 7.26512 22.4329 7.24127 22.3145 7.24073C22.1961 7.2402 22.0787 7.26299 21.9691 7.30781C21.8595 7.35263 21.7598 7.41859 21.6757 7.50194C21.5916 7.58529 21.5247 7.68439 21.4789 7.79358C21.4331 7.90277 21.4092 8.01991 21.4087 8.13832C21.4082 8.25673 21.431 8.37408 21.4758 8.48368C21.623 8.84263 21.7494 9.20976 21.8543 9.58325C21.8845 9.69923 21.9374 9.80803 22.0101 9.9033C22.0828 9.99857 22.1737 10.0784 22.2776 10.1381C22.3815 10.1978 22.4963 10.2362 22.6152 10.251C22.7341 10.2658 22.8547 10.2568 22.9701 10.2245C23.0855 10.1921 23.1933 10.1371 23.2871 10.0626C23.381 9.98807 23.459 9.8956 23.5167 9.79058C23.5744 9.68556 23.6106 9.57008 23.6231 9.45092C23.6356 9.33175 23.6243 9.21128 23.5897 9.09656C23.4665 8.65657 23.318 8.22404 23.145 7.80111V7.80111Z" fill="white"/>
</svg>
