<svg width="23" height="24" viewBox="0 0 23 24" fill="none" xmlns="http://www.w3.org/2000/svg">
<path d="M5.67896 10.6001H8.23451V12.9001H5.67896V10.6001ZM5.67896 15.2001H8.23451V17.5001H5.67896V15.2001ZM10.7901 10.6001H13.3456V12.9001H10.7901V10.6001ZM10.7901 15.2001H13.3456V17.5001H10.7901V15.2001ZM15.9012 10.6001H18.4567V12.9001H15.9012V10.6001ZM15.9012 15.2001H18.4567V17.5001H15.9012V15.2001Z" fill="white"/>
<path d="M2.55556 23.25H20.4444C21.8538 23.25 23 22.2184 23 20.95V4.85C23 3.58155 21.8538 2.55 20.4444 2.55H17.8889V0.25H15.3333V2.55H7.66667V0.25H5.11111V2.55H2.55556C1.14617 2.55 0 3.58155 0 4.85V20.95C0 22.2184 1.14617 23.25 2.55556 23.25ZM20.4444 7.15L20.4457 20.95H2.55556V7.15H20.4444Z" fill="white"/>
</svg>
