<svg width="37" height="34" viewBox="0 0 37 34" fill="none" xmlns="http://www.w3.org/2000/svg">
<rect x="0.5" y="0.5" width="36" height="33" rx="3.5" stroke="#BBBBBB"/>
<path fill-rule="evenodd" clip-rule="evenodd" d="M16 9H12.25C11.9185 9 11.6005 9.1317 11.3661 9.36612C11.1317 9.60054 11 9.91848 11 10.25V14C11 14.3315 11.1317 14.6495 11.3661 14.8839C11.6005 15.1183 11.9185 15.25 12.25 15.25H16C16.3315 15.25 16.6495 15.1183 16.8839 14.8839C17.1183 14.6495 17.25 14.3315 17.25 14V10.25C17.25 9.91848 17.1183 9.60054 16.8839 9.36612C16.6495 9.1317 16.3315 9 16 9ZM24.75 9H21C20.6685 9 20.3505 9.1317 20.1161 9.36612C19.8817 9.60054 19.75 9.91848 19.75 10.25V14C19.75 14.3315 19.8817 14.6495 20.1161 14.8839C20.3505 15.1183 20.6685 15.25 21 15.25H24.75C25.0815 15.25 25.3995 15.1183 25.6339 14.8839C25.8683 14.6495 26 14.3315 26 14V10.25C26 9.91848 25.8683 9.60054 25.6339 9.36612C25.3995 9.1317 25.0815 9 24.75 9ZM16 17.75H12.25C11.9185 17.75 11.6005 17.8817 11.3661 18.1161C11.1317 18.3505 11 18.6685 11 19V22.75C11 23.0815 11.1317 23.3995 11.3661 23.6339C11.6005 23.8683 11.9185 24 12.25 24H16C16.3315 24 16.6495 23.8683 16.8839 23.6339C17.1183 23.3995 17.25 23.0815 17.25 22.75V19C17.25 18.6685 17.1183 18.3505 16.8839 18.1161C16.6495 17.8817 16.3315 17.75 16 17.75ZM24.75 17.75H21C20.6685 17.75 20.3505 17.8817 20.1161 18.1161C19.8817 18.3505 19.75 18.6685 19.75 19V22.75C19.75 23.0815 19.8817 23.3995 20.1161 23.6339C20.3505 23.8683 20.6685 24 21 24H24.75C25.0815 24 25.3995 23.8683 25.6339 23.6339C25.8683 23.3995 26 23.0815 26 22.75V19C26 18.6685 25.8683 18.3505 25.6339 18.1161C25.3995 17.8817 25.0815 17.75 24.75 17.75Z" fill="black"/>
</svg>
