<svg width="23" height="24" viewBox="0 0 23 24" fill="none" xmlns="http://www.w3.org/2000/svg">
<path d="M2.55555 24H20.4444C21.1222 24 21.7722 23.7472 22.2515 23.2971C22.7307 22.847 23 22.2366 23 21.6001V10.8005C23.001 10.6426 22.9687 10.4861 22.9051 10.3399C22.8415 10.1937 22.7478 10.0607 22.6294 9.94856L12.4072 0.348937C12.1678 0.125445 11.8439 0 11.5064 0C11.1688 0 10.845 0.125445 10.6055 0.348937L0.383333 9.94856C0.262598 10.0597 0.166548 10.1922 0.100747 10.3385C0.0349455 10.4847 0.000701819 10.6418 0 10.8005V21.6001C0 22.2366 0.269245 22.847 0.748504 23.2971C1.22776 23.7472 1.87778 24 2.55555 24ZM8.94444 21.6001V15.6003H14.0555V21.6001H8.94444ZM2.55555 11.2925L11.5 2.89284L20.4444 11.2925V21.6001H16.6111V15.6003C16.6111 14.9638 16.3419 14.3534 15.8626 13.9033C15.3833 13.4533 14.7333 13.2004 14.0555 13.2004H8.94444C8.26666 13.2004 7.61665 13.4533 7.13739 13.9033C6.65813 14.3534 6.38888 14.9638 6.38888 15.6003V21.6001H2.55555V11.2925Z" fill="white"/>
</svg>
