<svg width="28" height="27" viewBox="0 0 28 27" fill="none" xmlns="http://www.w3.org/2000/svg">
<circle cx="13.6787" cy="13.5" r="12.8327" stroke="#C4C4C4" stroke-opacity="0.4" stroke-width="1.33459"/>
<path d="M14.1287 7.14355C14.5919 7.14349 15.0383 7.31656 15.3804 7.62879C15.7224 7.94101 15.9354 8.36983 15.9775 8.83105H18.8537C18.982 8.83109 19.1054 8.87982 19.1992 8.96739C19.2929 9.05495 19.3499 9.17483 19.3586 9.3028C19.3674 9.43077 19.3272 9.55728 19.2463 9.65678C19.1653 9.75628 19.0496 9.82135 18.9226 9.83883L18.8537 9.84355H18.4602L17.605 17.2551C17.5669 17.584 17.4092 17.8876 17.1619 18.1079C16.9146 18.3281 16.5949 18.4499 16.2637 18.4498H11.9937C11.6625 18.4499 11.3428 18.3281 11.0955 18.1079C10.8482 17.8876 10.6905 17.584 10.6525 17.2551L9.79656 9.84355H9.40371C9.28138 9.84355 9.16318 9.79925 9.07098 9.71884C8.97879 9.63843 8.91882 9.52735 8.90219 9.40616L8.89746 9.3373C8.89747 9.21497 8.94177 9.09677 9.02218 9.00458C9.10259 8.91238 9.21366 8.85242 9.33486 8.83578L9.40371 8.83105H12.2799C12.322 8.36983 12.535 7.94101 12.8771 7.62879C13.2191 7.31656 13.6656 7.14349 14.1287 7.14355ZM13.1162 11.3623C12.9508 11.3623 12.8125 11.4669 12.7841 11.6046L12.7787 11.658V15.7923L12.7841 15.845C12.8125 15.9827 12.9508 16.0873 13.1162 16.0873C13.2816 16.0873 13.42 15.9827 13.4483 15.845L13.4537 15.7917V11.6586L13.4483 11.6046C13.42 11.4676 13.2816 11.3623 13.1162 11.3623ZM15.1412 11.3623C14.9758 11.3623 14.8375 11.4669 14.8091 11.6046L14.8037 11.658V15.7923L14.8091 15.845C14.8375 15.9827 14.9758 16.0873 15.1412 16.0873C15.3066 16.0873 15.445 15.9827 15.4733 15.845L15.4787 15.7917V11.6586L15.4733 11.6046C15.445 11.4676 15.3066 11.363 15.1412 11.363V11.3623ZM14.1287 8.15605C13.7203 8.15605 13.3795 8.4463 13.3018 8.83105H14.9556C14.8773 8.4463 14.5371 8.15605 14.1287 8.15605Z" fill="black"/>
</svg>
