<svg width="22" height="26" viewBox="0 0 22 26" fill="none" xmlns="http://www.w3.org/2000/svg">
<path d="M6.85718 15.0356H14.8572V16.8214H6.85718V15.0356Z" fill="white"/>
<path d="M4.57153 10.5718H16.5715V12.3575H4.57153V10.5718Z" fill="white"/>
<path d="M8 19.5H13V21.2857H8V19.5Z" fill="white"/>
<path d="M20 3.42857H17V2.53571C17 2.06211 16.7893 1.60791 16.4142 1.27302C16.0391 0.938137 15.5304 0.75 15 0.75H7C6.46957 0.75 5.96086 0.938137 5.58579 1.27302C5.21071 1.60791 5 2.06211 5 2.53571V3.42857H2C1.46957 3.42857 0.960859 3.61671 0.585786 3.95159C0.210714 4.28648 0 4.74068 0 5.21429V23.9643C0 24.4379 0.210714 24.8921 0.585786 25.227C0.960859 25.5619 1.46957 25.75 2 25.75H20C20.5304 25.75 21.0391 25.5619 21.4142 25.227C21.7893 24.8921 22 24.4379 22 23.9643V5.21429C22 4.74068 21.7893 4.28648 21.4142 3.95159C21.0391 3.61671 20.5304 3.42857 20 3.42857V3.42857ZM7 2.53571H15V6.10714H7V2.53571ZM20 23.9643H2V5.21429H5V7.89286H17V5.21429H20V23.9643Z" fill="white"/>
</svg>
