<svg width="16" height="20" viewBox="0 0 16 20" fill="none" xmlns="http://www.w3.org/2000/svg">
<path d="M8 10.8333C9.38071 10.8333 10.5 9.71406 10.5 8.33334C10.5 6.95263 9.38071 5.83334 8 5.83334C6.61929 5.83334 5.5 6.95263 5.5 8.33334C5.5 9.71406 6.61929 10.8333 8 10.8333Z" stroke="black" stroke-width="2" stroke-linecap="round" stroke-linejoin="round"/>
<path d="M8.00016 1.66667C6.23205 1.66667 4.53636 2.36905 3.28612 3.61929C2.03588 4.86954 1.3335 6.56523 1.3335 8.33334C1.3335 9.91 1.6685 10.9417 2.5835 12.0833L8.00016 18.3333L13.4168 12.0833C14.3318 10.9417 14.6668 9.91 14.6668 8.33334C14.6668 6.56523 13.9644 4.86954 12.7142 3.61929C11.464 2.36905 9.76827 1.66667 8.00016 1.66667V1.66667Z" stroke="black" stroke-width="2" stroke-linecap="round" stroke-linejoin="round"/>
</svg>
