<svg width="24" height="17" viewBox="0 0 24 17" fill="none" xmlns="http://www.w3.org/2000/svg">
<path d="M22.5 0H1.5C1.10218 0 0.720644 0.179107 0.43934 0.497919C0.158035 0.816731 0 1.24913 0 1.7V15.3C0 15.7509 0.158035 16.1833 0.43934 16.5021C0.720644 16.8209 1.10218 17 1.5 17H22.5C22.8978 17 23.2794 16.8209 23.5607 16.5021C23.842 16.1833 24 15.7509 24 15.3V1.7C24 1.24913 23.842 0.816731 23.5607 0.497919C23.2794 0.179107 22.8978 0 22.5 0V0ZM22.5 5.1C21.7323 5.02946 21.013 4.64624 20.4753 4.0212C19.9376 3.39617 19.6178 2.5716 19.575 1.7H22.5V5.1ZM22.5 6.477V10.5825C21.4201 10.656 20.4018 11.1776 19.6396 12.0477C18.8774 12.9178 18.4245 14.0756 18.3675 15.3H5.6175C5.56261 14.0768 5.11267 12.9193 4.35338 12.0478C3.59409 11.1763 2.57849 10.6517 1.5 10.574V6.46C2.58606 6.38558 3.60934 5.85799 4.37245 4.97901C5.13556 4.10003 5.58444 2.93192 5.6325 1.7H18.3825C18.4302 2.92917 18.877 4.09502 19.637 4.9736C20.397 5.85218 21.4166 6.38154 22.5 6.46V6.477ZM4.425 1.7C4.38221 2.5716 4.06239 3.39617 3.52467 4.0212C2.98696 4.64624 2.26773 5.02946 1.5 5.1V1.7H4.425ZM1.5 11.951C2.2605 12.0201 2.97391 12.3961 3.51063 13.0106C4.04736 13.6251 4.37179 14.4374 4.425 15.3H1.5V11.951ZM19.575 15.3C19.6282 14.4374 19.9526 13.6251 20.4894 13.0106C21.0261 12.3961 21.7395 12.0201 22.5 11.951V15.3H19.575Z" fill="white"/>
<path d="M12.4175 2.42285C9.60126 2.42285 7.30444 5.15135 7.30444 8.50035C7.30444 11.8494 9.60126 14.5778 12.4175 14.5778C15.2337 14.5778 17.5305 11.8494 17.5305 8.50035C17.5305 5.15135 15.2337 2.42285 12.4175 2.42285ZM12.4175 13.2094C10.3155 13.2094 8.60299 11.0929 8.60299 8.49185C8.60299 5.89085 10.3155 3.77435 12.4175 3.77435C14.5195 3.77435 16.232 5.89085 16.232 8.49185C16.232 11.0929 14.5195 13.2178 12.4175 13.2178V13.2094Z" fill="white"/>
</svg>
