<svg width="24" height="22" viewBox="0 0 24 22" fill="none" xmlns="http://www.w3.org/2000/svg">
<path d="M12 0L0 2.75V4.58333L12 1.83333L24 4.58333V2.75L12 0ZM6.46154 5.5C3.48277 5.5 0.576923 6.70358 0.576923 6.70358L0 6.96025V21.0833H10.4132C10.7345 21.6315 11.3178 22 12 22C12.6812 22 13.2655 21.6315 13.5868 21.0833H24V6.96117L23.4231 6.70358C23.4231 6.70358 20.5172 5.5 17.5385 5.5C14.8449 5.5 12.48 6.39833 12 6.589C11.52 6.39833 9.15508 5.5 6.46154 5.5ZM6.46154 7.33333C8.24677 7.33333 10.1538 7.90625 11.0769 8.22158V18.4195C10.0495 18.0831 8.36215 17.6174 6.46154 17.6174C4.52123 17.6174 2.94185 18.0611 1.84615 18.4195V8.22158C2.55692 7.96583 4.43077 7.33333 6.46154 7.33333ZM17.5385 7.33333C19.5692 7.33333 21.4431 7.96675 22.1538 8.22158V18.4195C21.0572 18.062 19.4788 17.6174 17.5385 17.6174C15.6378 17.6174 13.9505 18.0831 12.9231 18.4195V8.22158C13.8462 7.90625 15.7532 7.33333 17.5385 7.33333Z" fill="white"/>
</svg>
