<svg width="22" height="22" viewBox="0 0 22 22" fill="none" xmlns="http://www.w3.org/2000/svg">
<path d="M11.4448 9.27528C11.4632 9.26244 11.4814 9.24932 11.4995 9.23594C11.5188 9.25026 11.5383 9.26427 11.558 9.27796C11.5419 9.32088 11.5271 9.36425 11.5136 9.408C11.5096 9.42112 11.5056 9.43426 11.5019 9.44743C11.4991 9.43786 11.4963 9.42831 11.4934 9.41877C11.4788 9.37046 11.4626 9.32259 11.4448 9.27528Z" stroke="white" stroke-width="4"/>
<mask id="path-2-inside-1_5547_2813" fill="white">
<path d="M0 2.75004C0 2.02069 0.386308 1.3212 1.07394 0.805469C1.76158 0.289736 2.69421 0 3.66667 0L18.3333 0C19.3058 0 20.2384 0.289736 20.9261 0.805469C21.6137 1.3212 22 2.02069 22 2.75004V21.3128C21.9999 21.4372 21.9549 21.5592 21.8696 21.6659C21.7844 21.7726 21.6622 21.8599 21.516 21.9186C21.3698 21.9773 21.2052 22.0052 21.0395 21.9992C20.8739 21.9933 20.7135 21.9537 20.5755 21.8849L11 18.0142L1.4245 21.8849C1.28646 21.9537 1.12609 21.9933 0.960468 21.9992C0.794846 22.0052 0.630177 21.9773 0.483999 21.9186C0.337821 21.8599 0.215608 21.7726 0.130376 21.6659C0.0451441 21.5592 8.56541e-05 21.4372 0 21.3128V2.75004ZM3.66667 1.37502C3.18044 1.37502 2.71412 1.51989 2.3703 1.77776C2.02649 2.03562 1.83333 2.38537 1.83333 2.75004V20.0286L10.4922 16.6158C10.6426 16.5407 10.8193 16.5006 11 16.5006C11.1807 16.5006 11.3574 16.5407 11.5078 16.6158L20.1667 20.0286V2.75004C20.1667 2.38537 19.9735 2.03562 19.6297 1.77776C19.2859 1.51989 18.8196 1.37502 18.3333 1.37502H3.66667Z"/>
</mask>
<path d="M3.66667 0L3.66667 -4L3.66667 0ZM22 21.3128L26 21.3156V21.3128H22ZM20.5755 21.8849L22.3618 18.3059L22.2207 18.2355L22.0746 18.1764L20.5755 21.8849ZM11 18.0142L12.4991 14.3057L11 13.6997L9.50093 14.3057L11 18.0142ZM1.4245 21.8849L-0.0745706 18.1764L-0.220721 18.2355L-0.361769 18.3059L1.4245 21.8849ZM0 21.3128L-4 21.3128L-4 21.3156L0 21.3128ZM1.83333 2.75004H-2.16667H1.83333ZM1.83333 20.0286H-2.16667V25.9046L3.30008 23.75L1.83333 20.0286ZM10.4922 16.6158L11.9589 20.3371L12.1218 20.2729L12.2784 20.1948L10.4922 16.6158ZM11 16.5006L11 20.5006L11 16.5006ZM11.5078 16.6158L9.72157 20.1948L9.87821 20.2729L10.0411 20.3371L11.5078 16.6158ZM20.1667 20.0286L18.6999 23.7499L24.1667 25.9046V20.0286H20.1667ZM4 2.75004C4 3.51379 3.59028 3.91821 3.47397 4.00545L-1.32608 -2.39451C-2.81767 -1.27581 -4 0.527584 -4 2.75004L4 2.75004ZM3.47397 4.00545C3.4154 4.04938 3.40081 4.04459 3.45021 4.02924C3.49743 4.01457 3.57308 4 3.66667 4L3.66667 -4C1.94775 -4 0.143473 -3.4967 -1.32608 -2.39451L3.47397 4.00545ZM3.66667 4H18.3333V-4H3.66667V4ZM18.3333 4C18.4269 4 18.5026 4.01457 18.5498 4.02924C18.5992 4.04459 18.5846 4.04938 18.526 4.00545L23.3261 -2.39451C21.8565 -3.4967 20.0523 -4 18.3333 -4V4ZM18.526 4.00545C18.4097 3.91821 18 3.51379 18 2.75004H26C26 0.527581 24.8177 -1.27581 23.3261 -2.39451L18.526 4.00545ZM18 2.75004V21.3128H26V2.75004H18ZM18 21.3101C18.0006 20.4378 18.323 19.6967 18.7446 19.169L24.9946 24.1628C25.5867 23.4217 25.9992 22.4366 26 21.3156L18 21.3101ZM18.7446 19.169C19.1526 18.6584 19.6307 18.3652 20.0255 18.2067L23.0065 25.6305C23.6937 25.3546 24.4162 24.8867 24.9946 24.1628L18.7446 19.169ZM20.0255 18.2067C20.4249 18.0463 20.8196 17.9888 21.183 18.0018L20.8961 25.9966C21.5907 26.0216 22.3148 25.9083 23.0065 25.6305L20.0255 18.2067ZM21.183 18.0018C21.5455 18.0148 21.9512 18.1009 22.3618 18.3059L18.7892 25.4639C19.4759 25.8066 20.2024 25.9718 20.8961 25.9966L21.183 18.0018ZM22.0746 18.1764L12.4991 14.3057L9.50093 21.7226L19.0764 25.5933L22.0746 18.1764ZM9.50093 14.3057L-0.0745706 18.1764L2.92357 25.5933L12.4991 21.7226L9.50093 14.3057ZM-0.361769 18.3059C0.0488372 18.1009 0.454528 18.0148 0.817045 18.0018L1.10389 25.9966C1.79765 25.9718 2.52408 25.8066 3.21077 25.4639L-0.361769 18.3059ZM0.817045 18.0018C1.18036 17.9888 1.57512 18.0463 1.97452 18.2067L-1.00653 25.6305C-0.314762 25.9083 0.409331 26.0216 1.10389 25.9966L0.817045 18.0018ZM1.97452 18.2067C2.36933 18.3652 2.84739 18.6584 3.25537 19.169L-2.99462 24.1628C-2.41617 24.8867 -1.69369 25.3546 -1.00653 25.6305L1.97452 18.2067ZM3.25537 19.169C3.67701 19.6967 3.9994 20.4378 4 21.3101L-4 21.3156C-3.99923 22.4367 -3.58672 23.4217 -2.99462 24.1628L3.25537 19.169ZM4 21.3128V2.75004H-4V21.3128H4ZM3.66667 -2.62498C2.43398 -2.62498 1.09602 -2.26654 -0.0297205 -1.42222L4.77033 4.97774C4.33222 5.30632 3.92689 5.37502 3.66667 5.37502L3.66667 -2.62498ZM-0.0297205 -1.42222C-1.17749 -0.561386 -2.16667 0.892263 -2.16667 2.75004L5.83333 2.75004C5.83333 3.87847 5.23046 4.63263 4.77033 4.97774L-0.0297205 -1.42222ZM-2.16667 2.75004V20.0286H5.83333V2.75004H-2.16667ZM3.30008 23.75L11.9589 20.3371L9.02542 12.8944L0.366584 16.3072L3.30008 23.75ZM12.2784 20.1948C11.8332 20.417 11.3919 20.5006 11 20.5006V12.5006C10.2467 12.5006 9.45198 12.6644 8.7059 13.0368L12.2784 20.1948ZM11 20.5006C10.6081 20.5006 10.1668 20.417 9.72157 20.1948L13.2941 13.0368C12.548 12.6644 11.7533 12.5006 11 12.5006L11 20.5006ZM10.0411 20.3371L18.6999 23.7499L21.6334 16.3072L12.9746 12.8944L10.0411 20.3371ZM24.1667 20.0286V2.75004H16.1667V20.0286H24.1667ZM24.1667 2.75004C24.1667 0.89226 23.1775 -0.561388 22.0297 -1.42222L17.2297 4.97774C16.7695 4.63263 16.1667 3.87847 16.1667 2.75004H24.1667ZM22.0297 -1.42222C20.904 -2.26654 19.566 -2.62498 18.3333 -2.62498L18.3333 5.37502C18.0731 5.37502 17.6678 5.30632 17.2297 4.97774L22.0297 -1.42222ZM18.3333 -2.62498H3.66667V5.37502H18.3333V-2.62498Z" fill="white" mask="url(#path-2-inside-1_5547_2813)"/>
</svg>
