<svg width="37" height="34" viewBox="0 0 37 34" fill="none" xmlns="http://www.w3.org/2000/svg">
<rect x="0.5" y="0.5" width="36" height="33" rx="3.5" stroke="#BBBBBB"/>
<path d="M26.0312 11.375H15.7656C15.6883 11.375 15.625 11.4383 15.625 11.5156V12.5C15.625 12.5773 15.6883 12.6406 15.7656 12.6406H26.0312C26.1086 12.6406 26.1719 12.5773 26.1719 12.5V11.5156C26.1719 11.4383 26.1086 11.375 26.0312 11.375ZM26.0312 16.3672H15.7656C15.6883 16.3672 15.625 16.4305 15.625 16.5078V17.4922C15.625 17.5695 15.6883 17.6328 15.7656 17.6328H26.0312C26.1086 17.6328 26.1719 17.5695 26.1719 17.4922V16.5078C26.1719 16.4305 26.1086 16.3672 26.0312 16.3672ZM26.0312 21.3594H15.7656C15.6883 21.3594 15.625 21.4227 15.625 21.5V22.4844C15.625 22.5617 15.6883 22.625 15.7656 22.625H26.0312C26.1086 22.625 26.1719 22.5617 26.1719 22.4844V21.5C26.1719 21.4227 26.1086 21.3594 26.0312 21.3594ZM11.8281 12.0078C11.8281 12.1371 11.8536 12.2651 11.9031 12.3845C11.9525 12.5039 12.025 12.6125 12.1164 12.7039C12.2078 12.7953 12.3164 12.8678 12.4358 12.9173C12.5552 12.9667 12.6832 12.9922 12.8125 12.9922C12.9418 12.9922 13.0698 12.9667 13.1892 12.9173C13.3086 12.8678 13.4172 12.7953 13.5086 12.7039C13.6 12.6125 13.6725 12.5039 13.7219 12.3845C13.7714 12.2651 13.7969 12.1371 13.7969 12.0078C13.7969 11.8785 13.7714 11.7505 13.7219 11.6311C13.6725 11.5117 13.6 11.4032 13.5086 11.3118C13.4172 11.2203 13.3086 11.1478 13.1892 11.0984C13.0698 11.0489 12.9418 11.0234 12.8125 11.0234C12.6832 11.0234 12.5552 11.0489 12.4358 11.0984C12.3164 11.1478 12.2078 11.2203 12.1164 11.3118C12.025 11.4032 11.9525 11.5117 11.9031 11.6311C11.8536 11.7505 11.8281 11.8785 11.8281 12.0078ZM11.8281 17C11.8281 17.1293 11.8536 17.2573 11.9031 17.3767C11.9525 17.4961 12.025 17.6047 12.1164 17.6961C12.2078 17.7875 12.3164 17.86 12.4358 17.9094C12.5552 17.9589 12.6832 17.9844 12.8125 17.9844C12.9418 17.9844 13.0698 17.9589 13.1892 17.9094C13.3086 17.86 13.4172 17.7875 13.5086 17.6961C13.6 17.6047 13.6725 17.4961 13.7219 17.3767C13.7714 17.2573 13.7969 17.1293 13.7969 17C13.7969 16.8707 13.7714 16.7427 13.7219 16.6233C13.6725 16.5039 13.6 16.3953 13.5086 16.3039C13.4172 16.2125 13.3086 16.14 13.1892 16.0906C13.0698 16.0411 12.9418 16.0156 12.8125 16.0156C12.6832 16.0156 12.5552 16.0411 12.4358 16.0906C12.3164 16.14 12.2078 16.2125 12.1164 16.3039C12.025 16.3953 11.9525 16.5039 11.9031 16.6233C11.8536 16.7427 11.8281 16.8707 11.8281 17ZM11.8281 21.9922C11.8281 22.1215 11.8536 22.2495 11.9031 22.3689C11.9525 22.4883 12.025 22.5968 12.1164 22.6882C12.2078 22.7797 12.3164 22.8522 12.4358 22.9016C12.5552 22.9511 12.6832 22.9766 12.8125 22.9766C12.9418 22.9766 13.0698 22.9511 13.1892 22.9016C13.3086 22.8522 13.4172 22.7797 13.5086 22.6882C13.6 22.5968 13.6725 22.4883 13.7219 22.3689C13.7714 22.2495 13.7969 22.1215 13.7969 21.9922C13.7969 21.8629 13.7714 21.7349 13.7219 21.6155C13.6725 21.4961 13.6 21.3875 13.5086 21.2961C13.4172 21.2047 13.3086 21.1322 13.1892 21.0827C13.0698 21.0333 12.9418 21.0078 12.8125 21.0078C12.6832 21.0078 12.5552 21.0333 12.4358 21.0827C12.3164 21.1322 12.2078 21.2047 12.1164 21.2961C12.025 21.3875 11.9525 21.4961 11.9031 21.6155C11.8536 21.7349 11.8281 21.8629 11.8281 21.9922Z" fill="black"/>
</svg>
