<svg width="70" height="70" viewBox="0 0 70 70" fill="none" xmlns="http://www.w3.org/2000/svg">
<rect width="70" height="70" rx="6" fill="#E6EAF5"/>
<path d="M16.25 19.375V22.5H50.625V47.5H28.75V50.625H56.875V47.5H53.75V19.375H16.25ZM22.5031 24.0625C20.847 24.0683 19.2603 24.7285 18.089 25.8993C16.9176 27.07 16.2566 28.6564 16.25 30.3125C16.25 33.7484 19.0687 36.5625 22.5031 36.5625C24.1584 36.5559 25.744 35.8952 26.9142 34.7245C28.0843 33.5537 28.7442 31.9678 28.75 30.3125C28.75 26.8797 25.9344 24.0625 22.5031 24.0625ZM31.875 25.625V28.75H39.6875V25.625H31.875ZM42.8125 25.625V28.75H47.5V25.625H42.8125ZM22.5031 27.1875C24.2437 27.1875 25.625 28.5672 25.625 30.3125C25.625 32.0625 24.2453 33.4375 22.5031 33.4375C20.7531 33.4375 19.375 32.0625 19.375 30.3125C19.375 28.5672 20.7547 27.1875 22.5031 27.1875ZM31.875 31.875V35H47.5V31.875H31.875ZM16.25 38.125V50.625H19.375V41.25H24.0625V50.625H27.1875V42.2781L30.4125 43.9844C31.3266 44.4688 32.425 44.4672 33.3375 43.9844V43.9875L38.8531 41.0703L37.3953 38.3047L31.8781 41.2219L27.0406 38.6688C26.3655 38.3121 25.6136 38.1254 24.85 38.125H16.25Z" fill="#4869AC"/>
</svg>
