<svg width="15" height="15" viewBox="0 0 15 15" fill="none" xmlns="http://www.w3.org/2000/svg">
<path d="M7.0294 1.51856C8.24076 1.42306 9.45257 1.69761 10.5045 2.30588C11.5564 2.91415 12.3988 3.82747 12.9203 4.92499C13.4418 6.02251 13.6178 7.25251 13.4249 8.45223C13.2321 9.65195 12.6795 10.7648 11.8404 11.6436C11.0012 12.5225 9.91497 13.1258 8.72542 13.3737C7.53587 13.6217 6.29907 13.5027 5.17866 13.0323C4.05825 12.562 3.10705 11.7626 2.45091 10.7399C1.79477 9.71714 1.46462 8.51929 1.50415 7.30481C1.50637 7.23095 1.52311 7.15824 1.55343 7.09084C1.58374 7.02344 1.62704 6.96268 1.68084 6.91201C1.73464 6.86134 1.79789 6.82177 1.86698 6.79555C1.93608 6.76933 2.00966 6.75697 2.08353 6.75919C2.1574 6.7614 2.23011 6.77815 2.2975 6.80846C2.3649 6.83878 2.42567 6.88207 2.47633 6.93587C2.527 6.98967 2.56657 7.05293 2.59279 7.12202C2.61901 7.19111 2.63137 7.2647 2.62915 7.33856C2.59115 8.48821 2.96088 9.61426 3.67298 10.5176C4.38507 11.421 5.39366 12.0434 6.5204 12.2749C7.64713 12.5064 8.81943 12.332 9.83001 11.7826C10.8406 11.2332 11.6243 10.3441 12.0427 9.27261C12.461 8.20111 12.487 7.01619 12.116 5.92739C11.745 4.83858 11.001 3.91603 10.0155 3.32285C9.02992 2.72967 7.86639 2.50409 6.73059 2.68598C5.5948 2.86788 4.5599 3.44554 3.8089 4.31681L3.6559 4.50281H5.44015L5.51665 4.50881C5.65129 4.52734 5.77466 4.59398 5.86397 4.69642C5.95328 4.79885 6.00248 4.93016 6.00248 5.06606C6.00248 5.20197 5.95328 5.33327 5.86397 5.43571C5.77466 5.53815 5.65129 5.60479 5.51665 5.62331L5.44015 5.62856H2.44015L2.36365 5.62331C2.24204 5.60662 2.12923 5.55059 2.04243 5.46379C1.95563 5.37699 1.8996 5.26418 1.8829 5.14256L1.87765 5.06606V2.06606L1.8829 1.98956C1.8996 1.86795 1.95563 1.75514 2.04243 1.66834C2.12923 1.58154 2.24204 1.52551 2.36365 1.50881L2.44015 1.50356L2.51665 1.50881C2.63827 1.52551 2.75108 1.58154 2.83788 1.66834C2.92468 1.75514 2.9807 1.86795 2.9974 1.98956L3.00265 2.06606L3.0019 3.53081C4.03131 2.36152 5.47622 1.63988 7.0294 1.51931V1.51856ZM7.3129 4.50281L7.3894 4.50806C7.51102 4.52476 7.62383 4.58079 7.71063 4.66759C7.79743 4.75439 7.85345 4.8672 7.87015 4.98881L7.8754 5.06531V7.49906L9.1879 7.49981L9.2644 7.50506C9.39961 7.52298 9.52369 7.58941 9.61357 7.69199C9.70346 7.79456 9.75301 7.9263 9.75301 8.06269C9.75301 8.19907 9.70346 8.33081 9.61357 8.43339C9.52369 8.53597 9.39961 8.6024 9.2644 8.62031L9.1879 8.62481H7.3129L7.2364 8.62031C7.11468 8.60358 7.00178 8.54744 6.91497 8.46049C6.82816 8.37355 6.7722 8.26056 6.75565 8.13881L6.7504 8.06231V5.06531L6.75565 4.98881C6.77235 4.8672 6.82838 4.75439 6.91518 4.66759C7.00198 4.58079 7.11479 4.52476 7.2364 4.50806L7.3129 4.50281Z" fill="black"/>
</svg>
