<svg width="25" height="23" viewBox="0 0 25 23" fill="none" xmlns="http://www.w3.org/2000/svg">
<path d="M21.1882 6.8335C21.1882 6.36937 21.389 5.92425 21.7464 5.59606C22.1039 5.26787 22.5886 5.0835 23.0941 5.0835C23.5995 5.0835 24.0843 5.26787 24.4417 5.59606C24.7991 5.92425 24.9999 6.36937 24.9999 6.8335V18.6769L23.0941 21.3019L21.1882 18.6769V6.8335ZM23.0941 6.25016C22.9256 6.25016 22.764 6.31162 22.6449 6.42102C22.5257 6.53041 22.4588 6.67879 22.4588 6.8335V18.3234L23.0941 19.1984L23.7294 18.3234V6.8335C23.7294 6.67879 23.6624 6.53041 23.5433 6.42102C23.4242 6.31162 23.2626 6.25016 23.0941 6.25016Z" fill="white"/>
<path d="M21.1882 6.8335C21.1882 6.36937 21.389 5.92425 21.7464 5.59606C22.1039 5.26787 22.5886 5.0835 23.0941 5.0835C23.5995 5.0835 24.0843 5.26787 24.4417 5.59606C24.7991 5.92425 24.9999 6.36937 24.9999 6.8335V18.6769L23.0941 21.3019L21.1882 18.6769V6.8335ZM23.0941 6.25016C22.9256 6.25016 22.764 6.31162 22.6449 6.42102C22.5257 6.53041 22.4588 6.67879 22.4588 6.8335V18.3234L23.0941 19.1984L23.7294 18.3234V6.8335C23.7294 6.67879 23.6624 6.53041 23.5433 6.42102C23.4242 6.31162 23.2626 6.25016 23.0941 6.25016Z" stroke="white"/>
<path fill-rule="evenodd" clip-rule="evenodd" d="M24.3644 9.16667H21.8232V8H24.3644V9.16667Z" fill="white"/>
<path fill-rule="evenodd" clip-rule="evenodd" d="M3.54114 2.16667C3.20416 2.16667 2.88099 2.28958 2.64271 2.50838C2.40443 2.72717 2.27057 3.02391 2.27057 3.33333V19.6667C2.27057 19.9761 2.40443 20.2728 2.64271 20.4916C2.88099 20.7104 3.20416 20.8333 3.54114 20.8333H16.2468C16.5838 20.8333 16.907 20.7104 17.1452 20.4916C17.3835 20.2728 17.5174 19.9761 17.5174 19.6667V3.33333C17.5174 3.02391 17.3835 2.72717 17.1452 2.50838C16.907 2.28958 16.5838 2.16667 16.2468 2.16667H3.54114ZM1 3.33333C1 2.71449 1.26773 2.121 1.74428 1.68342C2.22084 1.24583 2.86718 1 3.54114 1H16.2468C16.9208 1 17.5671 1.24583 18.0437 1.68342C18.5202 2.121 18.788 2.71449 18.788 3.33333V19.6667C18.788 20.2855 18.5202 20.879 18.0437 21.3166C17.5671 21.7542 16.9208 22 16.2468 22H3.54114C2.86718 22 2.22084 21.7542 1.74428 21.3166C1.26773 20.879 1 20.2855 1 19.6667V3.33333Z" fill="white" stroke="white"/>
<path fill-rule="evenodd" clip-rule="evenodd" d="M9.89429 6.24984C9.89429 6.09513 9.96122 5.94675 10.0804 5.83736C10.1995 5.72796 10.3611 5.6665 10.5296 5.6665H15.6118C15.7803 5.6665 15.9419 5.72796 16.0611 5.83736C16.1802 5.94675 16.2471 6.09513 16.2471 6.24984C16.2471 6.40455 16.1802 6.55292 16.0611 6.66232C15.9419 6.77171 15.7803 6.83317 15.6118 6.83317H10.5296C10.3611 6.83317 10.1995 6.77171 10.0804 6.66232C9.96122 6.55292 9.89429 6.40455 9.89429 6.24984Z" fill="white"/>
<path fill-rule="evenodd" clip-rule="evenodd" d="M9.89429 8.58333C9.89429 8.42862 9.96122 8.28025 10.0804 8.17085C10.1995 8.06146 10.3611 8 10.5296 8H15.6118C15.7803 8 15.9419 8.06146 16.0611 8.17085C16.1802 8.28025 16.2471 8.42862 16.2471 8.58333C16.2471 8.73804 16.1802 8.88642 16.0611 8.99581C15.9419 9.10521 15.7803 9.16667 15.6118 9.16667H10.5296C10.3611 9.16667 10.1995 9.10521 10.0804 8.99581C9.96122 8.88642 9.89429 8.73804 9.89429 8.58333Z" fill="white"/>
<path fill-rule="evenodd" clip-rule="evenodd" d="M9.89429 13.8333C9.89429 13.6786 9.96122 13.5303 10.0804 13.4209C10.1995 13.3115 10.3611 13.25 10.5296 13.25H15.6118C15.7803 13.25 15.9419 13.3115 16.0611 13.4209C16.1802 13.5303 16.2471 13.6786 16.2471 13.8333C16.2471 13.988 16.1802 14.1364 16.0611 14.2458C15.9419 14.3552 15.7803 14.4167 15.6118 14.4167H10.5296C10.3611 14.4167 10.1995 14.3552 10.0804 14.2458C9.96122 14.1364 9.89429 13.988 9.89429 13.8333Z" fill="white"/>
<path fill-rule="evenodd" clip-rule="evenodd" d="M9.89429 16.1668C9.89429 16.0121 9.96122 15.8637 10.0804 15.7543C10.1995 15.645 10.3611 15.5835 10.5296 15.5835H15.6118C15.7803 15.5835 15.9419 15.645 16.0611 15.7543C16.1802 15.8637 16.2471 16.0121 16.2471 16.1668C16.2471 16.3215 16.1802 16.4699 16.0611 16.5793C15.9419 16.6887 15.7803 16.7502 15.6118 16.7502H10.5296C10.3611 16.7502 10.1995 16.6887 10.0804 16.5793C9.96122 16.4699 9.89429 16.3215 9.89429 16.1668Z" fill="white"/>
<path fill-rule="evenodd" clip-rule="evenodd" d="M4.81207 13.8332V15.5832H6.71792V13.8332H4.81207ZM4.17679 12.6665H7.35321C7.5217 12.6665 7.68328 12.728 7.80242 12.8374C7.92156 12.9468 7.98849 13.0951 7.98849 13.2498V16.1665C7.98849 16.3212 7.92156 16.4696 7.80242 16.579C7.68328 16.6884 7.5217 16.7498 7.35321 16.7498H4.17679C4.0083 16.7498 3.84671 16.6884 3.72757 16.579C3.60844 16.4696 3.5415 16.3212 3.5415 16.1665V13.2498C3.5415 13.0951 3.60844 12.9468 3.72757 12.8374C3.84671 12.728 4.0083 12.6665 4.17679 12.6665Z" fill="white"/>
<path fill-rule="evenodd" clip-rule="evenodd" d="M8.43714 5.83778C8.55624 5.94718 8.62315 6.09552 8.62315 6.2502C8.62315 6.40488 8.55624 6.55323 8.43714 6.66262L5.44686 9.40837L3.72715 7.82929C3.66647 7.77547 3.61807 7.71111 3.58478 7.63994C3.55149 7.56877 3.53396 7.49222 3.53323 7.41477C3.53249 7.33731 3.54857 7.2605 3.58051 7.18881C3.61245 7.11712 3.65963 7.05199 3.71927 6.99722C3.77892 6.94245 3.84985 6.89914 3.92793 6.8698C4.006 6.84047 4.08965 6.82572 4.17401 6.82639C4.25836 6.82706 4.34172 6.84315 4.41923 6.87373C4.49674 6.9043 4.56684 6.94874 4.62544 7.00445L5.44686 7.7587L7.53885 5.83778C7.65799 5.72843 7.81954 5.66699 7.988 5.66699C8.15645 5.66699 8.31801 5.72843 8.43714 5.83778Z" fill="white"/>
</svg>
