<svg width="18" height="14" viewBox="0 0 18 14" fill="none" xmlns="http://www.w3.org/2000/svg">
<path d="M16.7151 6.13484C17.1101 6.6515 17.1101 7.349 16.7151 7.86484C15.4709 9.489 12.4859 12.8332 9.00091 12.8332C5.5159 12.8332 2.5309 9.489 1.28674 7.86484C1.09456 7.61745 0.990234 7.3131 0.990234 6.99984C0.990234 6.68657 1.09456 6.38223 1.28674 6.13484C2.5309 4.51067 5.5159 1.1665 9.00091 1.1665C12.4859 1.1665 15.4709 4.51067 16.7151 6.13484V6.13484Z" stroke="#979797" stroke-linecap="round" stroke-linejoin="round"/>
<path d="M9 9.5C10.3807 9.5 11.5 8.38071 11.5 7C11.5 5.61929 10.3807 4.5 9 4.5C7.61929 4.5 6.5 5.61929 6.5 7C6.5 8.38071 7.61929 9.5 9 9.5Z" stroke="#979797" stroke-linecap="round" stroke-linejoin="round"/>
</svg>
