<svg width="26" height="27" viewBox="0 0 26 27" fill="none" xmlns="http://www.w3.org/2000/svg">
<path d="M10.4286 1.5625V4.99107L8.71429 5.84821L6.14286 3.27679L2.71429 6.70536L5.28571 9.27679L4.42857 10.9911H1V16.1339H4.42857L5.28571 17.8482L2.71429 20.4196L6.14286 23.8482L8.71429 21.2768L10.4286 22.1339V25.5625H15.5714V22.1339L17.2857 21.2768L19.8571 23.8482L23.2857 20.4196L20.7143 17.8482L21.5714 16.1339H25V10.9911H21.5714L20.7143 9.27679L23.2857 6.70536L19.8571 3.27679L17.2857 5.84821L15.5714 4.99107V1.5625H10.4286Z" stroke="white" stroke-width="2" stroke-linecap="round" stroke-linejoin="round"/>
<path d="M13.0008 16.9909C14.8944 16.9909 16.4294 15.4559 16.4294 13.5624C16.4294 11.6688 14.8944 10.1338 13.0008 10.1338C11.1073 10.1338 9.57227 11.6688 9.57227 13.5624C9.57227 15.4559 11.1073 16.9909 13.0008 16.9909Z" stroke="white" stroke-width="2" stroke-linecap="round" stroke-linejoin="round"/>
</svg>
