<svg width="70" height="70" viewBox="0 0 70 70" fill="none" xmlns="http://www.w3.org/2000/svg">
<rect width="70" height="70" rx="6" fill="#F8ECE9"/>
<path opacity="0.2" d="M53.75 22.5L35 28.75L16.25 22.5L35 16.25L53.75 22.5Z" fill="#D86C3D"/>
<path d="M54.2441 21.0176L35.4941 14.7676C35.1734 14.6608 34.8266 14.6608 34.5059 14.7676L15.7859 21.0079L15.784 21.0084L15.7559 21.0178C15.7504 21.0198 15.7455 21.0227 15.7402 21.0247C15.6725 21.0479 15.6064 21.0758 15.5426 21.1082C15.5354 21.1122 15.5277 21.1151 15.5205 21.119C15.4574 21.1527 15.3966 21.1908 15.3387 21.2329C15.326 21.242 15.3134 21.2514 15.301 21.261C15.2445 21.3036 15.191 21.35 15.1408 21.3998C15.1363 21.4047 15.1322 21.4098 15.1277 21.4145C15.0815 21.4627 15.0384 21.5138 14.9986 21.5674C14.9904 21.5784 14.982 21.5889 14.9742 21.6C14.9332 21.658 14.8962 21.7187 14.8635 21.7817C14.8584 21.7914 14.8541 21.8012 14.8492 21.811C14.8186 21.8728 14.7922 21.9365 14.7701 22.0018C14.7682 22.0079 14.7654 22.0137 14.7635 22.02C14.7414 22.0893 14.7242 22.1601 14.7121 22.2319C14.7096 22.2469 14.7074 22.262 14.7053 22.2768C14.694 22.3507 14.6881 22.4253 14.6875 22.5V38.125C14.6875 38.5394 14.8521 38.9369 15.1451 39.2299C15.4382 39.5229 15.8356 39.6875 16.25 39.6875C16.6644 39.6875 17.0618 39.5229 17.3549 39.2299C17.6479 38.9369 17.8125 38.5394 17.8125 38.125V24.668L24.3721 26.8545C22.6332 29.6625 22.0767 33.0447 22.8245 36.2617C23.5722 39.4787 25.5633 42.2688 28.3623 44.0219C24.6351 45.4313 21.4545 47.9928 19.2832 51.334C19.1683 51.5059 19.0887 51.6988 19.0489 51.9016C19.0091 52.1045 19.01 52.3132 19.0514 52.5157C19.0929 52.7182 19.1741 52.9104 19.2904 53.0813C19.4066 53.2522 19.5557 53.3984 19.7288 53.5112C19.902 53.6241 20.0958 53.7016 20.2991 53.739C20.5024 53.7765 20.711 53.7732 20.9131 53.7294C21.1151 53.6857 21.3064 53.6023 21.4759 53.484C21.6455 53.3658 21.7899 53.2151 21.9008 53.0407C23.3203 50.8599 25.2618 49.068 27.5493 47.8276C29.8367 46.5872 32.3976 45.9376 34.9997 45.9376C37.6018 45.9376 40.1627 46.5872 42.4502 47.8276C44.7376 49.068 46.6791 50.8599 48.0986 53.0407C48.2102 53.2137 48.3548 53.363 48.5242 53.48C48.6936 53.5969 48.8845 53.6793 49.0859 53.7223C49.2872 53.7652 49.495 53.768 49.6975 53.7304C49.8999 53.6927 50.0928 53.6155 50.2653 53.5031C50.4378 53.3906 50.5863 53.2452 50.7024 53.0752C50.8185 52.9052 50.8998 52.7139 50.9417 52.5123C50.9837 52.3108 50.9853 52.1029 50.9467 51.9007C50.908 51.6985 50.8297 51.5059 50.7164 51.334C48.5451 47.9929 45.3647 45.4314 41.6375 44.0221C44.4366 42.269 46.4277 39.4788 47.1754 36.2618C47.9232 33.0447 47.3667 29.6625 45.6277 26.8545L54.2441 23.9825C54.5553 23.8788 54.826 23.6799 55.0178 23.4138C55.2096 23.1477 55.3129 22.828 55.3129 22.5C55.3129 22.172 55.2096 21.8524 55.0178 21.5863C54.826 21.3202 54.5553 21.1213 54.2441 21.0176ZM44.375 33.4375C44.3754 34.9197 44.0244 36.3807 43.3507 37.7009C42.6771 39.0211 41.7001 40.1628 40.4998 41.0322C39.2995 41.9017 37.9102 42.4742 36.4458 42.7028C34.9814 42.9314 33.4837 42.8095 32.0755 42.3471C30.6674 41.8848 29.3889 41.0952 28.345 40.0431C27.3011 38.991 26.5215 37.7063 26.0702 36.2946C25.6189 34.8829 25.5087 33.3842 25.7488 31.9217C25.9888 30.4591 26.5721 29.0743 27.451 27.8809L34.5059 30.2325C34.8266 30.3393 35.1734 30.3393 35.4941 30.2325L42.549 27.8809C43.7365 29.4901 44.3765 31.4377 44.375 33.4375ZM42.559 24.5832C42.5551 24.5848 42.5512 24.5858 42.5473 24.5872L35 27.103L27.4527 24.5873C27.4488 24.5858 27.4447 24.5846 27.4408 24.5832L21.191 22.5L35 17.8971L48.809 22.5L42.559 24.5832Z" fill="#D86C3D"/>
</svg>
