<svg width="18" height="19" viewBox="0 0 18 19" fill="none" xmlns="http://www.w3.org/2000/svg">
<path opacity="0.5" d="M16.5 7.79102H1.5V14.541C1.5 15.1378 1.73705 15.71 2.15901 16.132C2.58097 16.554 3.15326 16.791 3.75 16.791H14.25C14.8467 16.791 15.419 16.554 15.841 16.132C16.2629 15.71 16.5 15.1378 16.5 14.541V7.79102ZM5.25 6.29102C5.05109 6.29102 4.86032 6.212 4.71967 6.07135C4.57902 5.93069 4.5 5.73993 4.5 5.54102V2.54102C4.5 2.3421 4.57902 2.15134 4.71967 2.01069C4.86032 1.87003 5.05109 1.79102 5.25 1.79102C5.44891 1.79102 5.63968 1.87003 5.78033 2.01069C5.92098 2.15134 6 2.3421 6 2.54102V5.54102C6 5.73993 5.92098 5.93069 5.78033 6.07135C5.63968 6.212 5.44891 6.29102 5.25 6.29102ZM12.75 6.29102C12.5511 6.29102 12.3603 6.212 12.2197 6.07135C12.079 5.93069 12 5.73993 12 5.54102V2.54102C12 2.3421 12.079 2.15134 12.2197 2.01069C12.3603 1.87003 12.5511 1.79102 12.75 1.79102C12.9489 1.79102 13.1397 1.87003 13.2803 2.01069C13.421 2.15134 13.5 2.3421 13.5 2.54102V5.54102C13.5 5.73993 13.421 5.93069 13.2803 6.07135C13.1397 6.212 12.9489 6.29102 12.75 6.29102Z" fill="black"/>
<path d="M14.25 3.29102H13.5V5.54102C13.5 5.73993 13.421 5.93069 13.2803 6.07135C13.1397 6.212 12.9489 6.29102 12.75 6.29102C12.5511 6.29102 12.3603 6.212 12.2197 6.07135C12.079 5.93069 12 5.73993 12 5.54102V3.29102H6V5.54102C6 5.73993 5.92098 5.93069 5.78033 6.07135C5.63968 6.212 5.44891 6.29102 5.25 6.29102C5.05109 6.29102 4.86032 6.212 4.71967 6.07135C4.57902 5.93069 4.5 5.73993 4.5 5.54102V3.29102H3.75C3.15326 3.29102 2.58097 3.52807 2.15901 3.95003C1.73705 4.37198 1.5 4.94428 1.5 5.54102V7.79102H16.5V5.54102C16.5 4.94428 16.2629 4.37198 15.841 3.95003C15.419 3.52807 14.8467 3.29102 14.25 3.29102Z" fill="black"/>
</svg>
