<svg width="24" height="22" viewBox="0 0 24 22" fill="none" xmlns="http://www.w3.org/2000/svg">
<path d="M11.92 10.3486C14.08 10.3486 15.7599 8.60483 15.7599 6.46475C15.7599 4.32467 14 2.66016 11.84 2.66016C9.67999 2.66016 8 4.40393 8 6.46475C8 8.60483 9.75999 10.3486 11.92 10.3486ZM11.84 4.2454C11.92 4.2454 11.92 4.2454 11.84 4.2454C13.12 4.2454 14.16 5.27581 14.16 6.54401C14.16 7.81221 13.12 8.76336 11.84 8.76336C10.56 8.76336 9.59999 7.73295 9.59999 6.54401C9.59999 5.27581 10.64 4.2454 11.84 4.2454V4.2454Z" fill="white"/>
<path d="M23.76 9.87278C22.24 8.52532 20.24 7.81196 18.16 7.89122H17.52C17.36 8.52532 17.12 9.08015 16.8 9.55573C17.28 9.47647 17.68 9.47647 18.16 9.47647C19.68 9.3972 21.2 9.87278 22.4 10.7447V16.4516H24V10.1106L23.76 9.87278Z" fill="white"/>
<path d="M16.3199 2.81862C16.7199 1.86747 17.8399 1.39189 18.8799 1.7882C19.8399 2.18452 20.3199 3.29419 19.9199 4.3246C19.5999 5.03796 18.8799 5.51353 18.1599 5.51353C17.9999 5.51353 17.7599 5.51354 17.5999 5.43427C17.6799 5.83058 17.6799 6.2269 17.6799 6.54395V7.01952C17.8399 7.01952 17.9999 7.09878 18.1599 7.09878C20.1599 7.09878 21.7599 5.51354 21.7599 3.61124C21.7599 1.62968 20.1599 0.0444336 18.2399 0.0444336C16.9599 0.0444336 15.8399 0.678532 15.2 1.7882C15.5999 2.02599 15.9999 2.34304 16.3199 2.81862V2.81862Z" fill="white"/>
<path d="M7.19995 9.63533C6.87995 9.15975 6.63996 8.60492 6.47996 7.97082H5.83996C3.75998 7.89156 1.75999 8.60492 0.239998 9.87311L0 10.1109V16.4519H1.59999V10.745C2.87998 9.87311 4.31997 9.39754 5.83996 9.4768C6.31996 9.4768 6.79996 9.55606 7.19995 9.63533Z" fill="white"/>
<path d="M5.84018 7.01949C6.00018 7.01949 6.16018 7.01948 6.32018 6.94022V6.46465C6.32018 6.06834 6.32018 5.67203 6.40018 5.35498C6.24018 5.43424 6.00018 5.43424 5.84018 5.43424C4.80019 5.43424 3.92019 4.56235 3.92019 3.53194C3.92019 2.50153 4.80019 1.62965 5.84018 1.62965C6.64018 1.62965 7.36017 2.10522 7.68017 2.81858C8.00017 2.42227 8.48016 2.02596 8.88016 1.70891C7.84017 0.044402 5.68018 -0.510434 4.00019 0.519976C2.32021 1.55039 1.76021 3.69047 2.8002 5.35498C3.4402 6.38539 4.56019 7.01949 5.84018 7.01949V7.01949Z" fill="white"/>
<path d="M18.48 14.6284L18.32 14.3906C16.72 12.6468 14.48 11.6164 12.0801 11.6957C9.68007 11.6164 7.36009 12.6468 5.7601 14.3906L5.6001 14.6284V20.6523C5.6001 21.3657 6.16009 21.9998 6.96009 21.9998H17.2C17.92 21.9998 18.56 21.3657 18.56 20.6523V14.6284H18.48ZM16.88 20.4145H7.20009V15.1832C8.48008 13.915 10.2401 13.2809 12.0801 13.2809C13.84 13.2017 15.6 13.915 16.88 15.1832V20.4145Z" fill="white"/>
</svg>
