<svg width="27" height="27" viewBox="0 0 27 27" fill="none" xmlns="http://www.w3.org/2000/svg">
<circle cx="13.5" cy="13.5" r="12.8327" stroke="#C4C4C4" stroke-opacity="0.4" stroke-width="1.33459"/>
<path d="M18.707 12.9161C18.9737 13.2649 18.9737 13.7357 18.707 14.0839C17.8672 15.1802 15.8523 17.4375 13.5 17.4375C11.1476 17.4375 9.13273 15.1802 8.29291 14.0839C8.16319 13.9169 8.09277 13.7115 8.09277 13.5C8.09277 13.2885 8.16319 13.0831 8.29291 12.9161C9.13273 11.8198 11.1476 9.5625 13.5 9.5625C15.8523 9.5625 17.8672 11.8198 18.707 12.9161V12.9161Z" stroke="black" stroke-width="1.33459" stroke-linecap="round" stroke-linejoin="round"/>
<path d="M13.5 15.1875C14.432 15.1875 15.1875 14.432 15.1875 13.5C15.1875 12.568 14.432 11.8125 13.5 11.8125C12.568 11.8125 11.8125 12.568 11.8125 13.5C11.8125 14.432 12.568 15.1875 13.5 15.1875Z" stroke="black" stroke-width="1.33459" stroke-linecap="round" stroke-linejoin="round"/>
</svg>
